<svg xmlns="http://www.w3.org/2000/svg" width="37.492" height="46.079" viewBox="0 0 37.492 46.079">
  <g id="チェックシートのアイコン" transform="translate(-47.703)">
    <path id="Path_245" data-name="Path 245" d="M77.465,0H55.433A7.738,7.738,0,0,0,47.7,7.73V38.349a7.739,7.739,0,0,0,7.73,7.73h16.5l.839-.838L84.357,33.65l.838-.839V7.73A7.738,7.738,0,0,0,77.465,0Zm4.868,31.625H74.8a4.057,4.057,0,0,0-4.056,4.057v7.534H55.433a4.868,4.868,0,0,1-4.868-4.868V7.73a4.868,4.868,0,0,1,4.868-4.868H77.465A4.867,4.867,0,0,1,82.333,7.73v23.9Z" fill="#333"/>
    <rect id="Rectangle_385" data-name="Rectangle 385" width="2.761" height="2.635" transform="translate(55.44 11.422)" fill="#333"/>
    <rect id="Rectangle_386" data-name="Rectangle 386" width="2.761" height="2.635" transform="translate(55.44 17.837)" fill="#333"/>
    <rect id="Rectangle_387" data-name="Rectangle 387" width="2.761" height="2.635" transform="translate(55.44 24.252)" fill="#333"/>
    <rect id="Rectangle_388" data-name="Rectangle 388" width="2.761" height="2.635" transform="translate(55.44 30.667)" fill="#333"/>
    <rect id="Rectangle_389" data-name="Rectangle 389" width="16.278" height="2.635" transform="translate(61.181 11.422)" fill="#333"/>
    <rect id="Rectangle_390" data-name="Rectangle 390" width="16.278" height="2.635" transform="translate(61.181 17.837)" fill="#333"/>
    <rect id="Rectangle_391" data-name="Rectangle 391" width="16.278" height="2.635" transform="translate(61.181 24.252)" fill="#333"/>
    <rect id="Rectangle_392" data-name="Rectangle 392" width="6.69" height="2.635" transform="translate(61.181 30.667)" fill="#333"/>
  </g>
</svg>
