<svg xmlns="http://www.w3.org/2000/svg" width="45.525" height="35.764" viewBox="0 0 45.525 35.764">
  <g id="SNS人物アイコン" transform="translate(0 -54.89)">
    <path id="Path_246" data-name="Path 246" d="M182.881,69.163a7.136,7.136,0,1,0-7.136-7.137A7.137,7.137,0,0,0,182.881,69.163Z" transform="translate(-160.118)" fill="#333"/>
    <path id="Path_247" data-name="Path 247" d="M378.381,142.431a5.321,5.321,0,1,0-5.321-5.321A5.321,5.321,0,0,0,378.381,142.431Z" transform="translate(-339.889 -70.061)" fill="#333"/>
    <path id="Path_248" data-name="Path 248" d="M385,265.224a7.732,7.732,0,0,0-4.742,1.486,7.345,7.345,0,0,1,.509,1.5l.049.229v11.59h5.018a6.138,6.138,0,0,0,6.138-6.138v-4.015C391.606,268.16,389.4,265.224,385,265.224Z" transform="translate(-346.447 -191.632)" fill="#333"/>
    <path id="Path_249" data-name="Path 249" d="M24.58,131.788a5.321,5.321,0,1,0,5.321,5.32A5.321,5.321,0,0,0,24.58,131.788Z" transform="translate(-17.547 -70.06)" fill="#333"/>
    <path id="Path_250" data-name="Path 250" d="M0,269.873v4.015a6.138,6.138,0,0,0,6.138,6.138h5.018V268.435l.049-.229a7.355,7.355,0,0,1,.509-1.5,7.734,7.734,0,0,0-4.742-1.486C2.569,265.225.367,268.161,0,269.873Z" transform="translate(0 -191.633)" fill="#333"/>
    <path id="Path_251" data-name="Path 251" d="M160.184,233.86c-5.906,0-8.859,3.937-9.351,6.234v10.268a3.349,3.349,0,0,0,3.348,3.348h12.006a3.349,3.349,0,0,0,3.348-3.348V240.094C169.043,237.8,166.09,233.86,160.184,233.86Z" transform="translate(-137.421 -163.057)" fill="#333"/>
  </g>
</svg>
